<svg xmlns="http://www.w3.org/2000/svg" class="svg-icon icon-jg" width="50" height="50" x="0" y="0" viewBox="0 0 50 50" focusable="false" role="presentation" shape-rendering="geometricPrecision" preserveAspectRatio="xMidYMid meet">
  <path style="transform: scale(.95) translate(1px,5px)" d="m42.012,36.597c-.533.098-1.072.168-1.61.203-.579.046-1.118.07-1.604.07-3.041,0-5.341-1.205-6.905-3.609-1.564-2.41-2.346-6.157-2.346-11.255-.017-2.016.168-4.037.556-6.018.313-1.668.938-3.255,1.842-4.68.823-1.28,1.94-2.329,3.25-3.058,1.315-.73,2.931-1.101,4.866-1.101,1.477,0,2.943.261,4.333.788,1.245.44,2.439,1.043,3.545,1.784l2.108-6.574c-.168-.098-.371-.226-.614-.377-1.031-.637-2.838-1.477-4.003-1.825-.747-.22-1.506-.405-2.276-.556C41.752.117,40.332-.011,38.907,0c-2.381-.017-4.732.458-6.928,1.396-1.686.73-3.226,1.767-4.547,3.064V1.101H3.736v7.293h14.579v19.416c0,2.948-.66,4.97-1.987,6.065-1.35,1.106-3.134,1.651-5.346,1.628-1.402-.012-2.786-.359-4.06-.938-1.292-.591-2.549-1.251-3.759-1.987l-3.163,6.302c1.448,1.066,3.058,1.911,4.773,2.508,1.883.684,4.24,1.025,7.073,1.025,2.688,0,4.97-.377,6.858-1.124,1.761-.666,3.336-1.715,4.611-3.058.452-.492.863-1.025,1.222-1.581.156.209.324.405.487.602,1.413,1.674,3.226,3,5.288,3.864,2.201.892,4.564,1.332,6.951,1.297,2.514.035,5.022-.185,7.484-.666,1.547-.301,3.064-.701,4.559-1.193v-19.404h-7.293v15.448Z"/>
</svg>