<svg xmlns="http://www.w3.org/2000/svg" class="svg-icon icon-linkedIn" width="50" height="50" x="5" y="5" viewBox="0 0 50 50" focusable="false" role="presentation" shape-rendering="geometricPrecision" preserveAspectRatio="xMidYMid meet">
  <rect class="svg-rect" fill="transparent" stroke="currentColor" stroke-width="1.5" x="1" y="1" rx="3" ry="3" width="48" height="48" />
  <path class="svg-path" fill="black" d="m35.449,41.705v-12.512c0-3.864-1.738-5.213-4.171-5.213-2.126,0-4.171,1.825-4.171,5.213v12.512h-8.341v-22.938h8.341v2.693c1.437-2.085,3.823-3.522,7.298-3.522,7.519,0,9.384,6.256,9.384,11.255v12.512h-8.341ZM6.036,11.295c0-2.259,1.958-4.13,4.391-4.13s4.391,1.871,4.391,4.13-1.958,4.084-4.391,4.084-4.391-1.825-4.391-4.084m.22,7.472h8.341v22.938H6.256v-22.938Z"/>
</svg>