<svg class="icon-svg icon-github" xmlns="http://www.w3.org/2000/svg" viewBox="0 0 50 50">
  <path d="m25.023,0C11.197,0,0,11.481,0,25.654c0,11.353,7.165,20.945,17.111,24.345,1.251.22,1.72-.55,1.72-1.222,0-.608-.035-2.63-.035-4.779-6.285,1.187-7.912-1.57-8.411-3.012-.284-.741-1.5-3.018-2.566-3.626-.875-.481-2.126-1.668-.029-1.697,1.969-.035,3.377,1.859,3.846,2.63,2.253,3.881,5.85,2.786,7.287,2.114.22-1.668.875-2.792,1.593-3.429-5.566-.643-11.382-2.856-11.382-12.668,0-2.792.967-5.103,2.566-6.899-.255-.637-1.13-3.267.249-6.794,0,0,2.097-.678,6.881,2.63,1.998-.579,4.13-.869,6.256-.869s4.252.29,6.256.869c4.785-3.336,6.881-2.63,6.881-2.63,1.373,3.528.498,6.157.249,6.794,1.593,1.796,2.566,4.078,2.566,6.899,0,9.841-5.85,12.025-11.417,12.668.904.799,1.686,2.34,1.686,4.744,0,3.435-.029,6.192-.029,7.055,0,.672.469,1.477,1.72,1.222,10.183-3.528,17.047-13.322,17.047-24.345C50.046,11.481,38.85,0,25.023,0"/>
</svg>