<svg xmlns="http://www.w3.org/2000/svg" class="svg-icon icon-pin" width="50" height="50" x="0" y="0" viewBox="0 0 50 50" focusable="false" role="presentation" shape-rendering="geometricPrecision" preserveAspectRatio="xMidYMid meet">
  <g id="icon-pin-outline">
    <path class="svg-path-1" d="m17.516,0C7.831,0,0,7.831,0,17.516c0,13.137,17.516,32.53,17.516,32.53,0,0,17.516-19.393,17.516-32.53C35.032,7.831,27.201,0,17.516,0m0,2.67c8.185,0,14.846,6.661,14.846,14.846,0,8.729-9.401,21.872-14.846,28.441-5.451-6.563-14.846-19.7-14.846-28.441,0-8.185,6.661-14.846,14.846-14.846"/>
    <path class="svg-path-2" d="m17.516,23.774c-3.452,0-6.256-2.804-6.256-6.256s2.804-6.256,6.256-6.256,6.256,2.798,6.256,6.256-2.804,6.256-6.256,6.256"/>
  </g>
  <path id="icon-pin-fill" fill="transparent" d="m17.516,23.772c-3.452,0-6.256-2.804-6.256-6.256s2.804-6.256,6.256-6.256,6.256,2.798,6.256,6.256-2.804,6.256-6.256,6.256m0-23.772C7.831,0,0,7.831,0,17.516c0,13.137,17.516,32.53,17.516,32.53,0,0,17.516-19.393,17.516-32.53C35.032,7.831,27.201,0,17.516,0"/>
</svg>